<svg width="409" height="373" viewBox="0 0 409 373" fill="none" xmlns="http://www.w3.org/2000/svg">
<g clip-path="url(#clip0)">
<path opacity="0.1" d="M259.31 118.18C238.931 118.211 219.316 111.459 200.554 103.957C181.792 96.4554 163.174 88.0551 143.175 84.4955C130.313 82.2071 115.686 82.4175 105.632 90.7255C95.9539 98.7179 93.151 111.946 91.7987 124.168C90.782 133.362 90.3129 143.011 94.1219 151.421C96.7663 157.259 101.292 162.071 104.482 167.635C115.615 186.992 108.92 211.718 98.0993 231.524C93.0257 240.817 87.0828 249.724 83.2467 259.548C79.4112 269.373 77.8381 280.514 81.7498 290.211C85.6267 299.823 94.3835 306.799 103.781 311.563C122.865 321.257 145.083 323.335 166.705 324.135C214.567 325.91 262.521 322.289 310.348 318.67C328.047 317.331 345.824 315.983 363.158 312.105C372.781 309.953 382.692 306.76 389.515 299.762C398.176 290.877 399.949 276.371 393.645 265.944C383.076 248.455 355.205 245.157 347.626 226.234C343.447 215.816 347.051 203.869 352.359 193.827C363.744 172.281 383.34 152.982 383.67 128.884C383.897 112.335 373.706 96.1908 358.485 88.9979C342.531 81.465 320.779 83.4023 309.601 97.4434C298.107 111.908 277.303 118.157 259.31 118.18Z" fill="#00308F"/>
<path d="M379.959 253.292C379.959 253.292 378.548 247.706 372.463 249.376C372.463 249.376 373.912 254.401 379.555 254.322L379.959 253.292Z" fill="#00308F"/>
<path d="M382.958 247.205C382.958 247.205 381.676 241.554 376.211 243.245C376.211 243.245 378.035 248.614 382.596 248.161L382.958 247.205Z" fill="#00308F"/>
<path d="M385.207 241.861C385.207 241.861 384.113 234.529 378.46 236.152C378.46 236.152 380.103 242.822 384.792 242.929L385.207 241.861Z" fill="#00308F"/>
<path d="M386.706 234.944C386.706 234.944 385.446 228.181 379.959 230.138C379.959 230.138 382.11 236.531 386.317 235.87L386.706 234.944Z" fill="#00308F"/>
<path d="M387.456 228.442C387.456 228.442 385.534 221.716 381.459 221.898C381.459 221.898 383.422 229.001 387.115 229.782L387.456 228.442Z" fill="#00308F"/>
<path d="M388.206 222.386C388.206 222.386 386.177 214.294 382.958 214.917C382.958 214.917 384.362 221.104 388.092 223.648L388.206 222.386Z" fill="#00308F"/>
<path d="M388.955 215.584C388.955 215.584 386.705 208.168 382.958 207.871C382.958 207.871 384.489 215.169 388.881 217.512L388.955 215.584Z" fill="#00308F"/>
<path d="M388.955 208.412C388.955 208.412 386.565 201.027 384.457 200.859C384.457 200.859 385.496 208.132 388.751 209.624L388.955 208.412Z" fill="#00308F"/>
<path d="M389.705 202.045C389.705 202.045 387.859 194.477 385.207 193.848C385.207 193.848 385.569 200.04 389.438 202.613L389.705 202.045Z" fill="#00308F"/>
<path d="M390.454 194.068C390.454 194.068 388.676 187.793 386.707 186.836C386.707 186.836 387.095 194.234 390.001 195.601L390.454 194.068Z" fill="#00308F"/>
<path d="M390.912 188.38L391.204 177.196C391.204 177.196 388.201 185.626 390.696 190.342L390.912 188.38Z" fill="#00308F"/>
<path d="M393.317 177.417C393.317 177.417 395.84 169.736 396.452 169.307C396.452 169.307 391.504 174.291 391.987 180.701L393.317 177.417Z" fill="#00308F"/>
<path d="M377.278 258.705C377.278 258.705 382.626 258.686 382.182 266.554C382.182 266.554 377.692 267.498 376.211 260.193L377.278 258.705Z" fill="#00308F"/>
<path d="M380.343 253.086C380.343 253.086 384.681 250.381 387.456 257.363C387.456 257.363 383.45 259.616 379.959 254.214L380.343 253.086Z" fill="#00308F"/>
<path d="M383.329 247.07C383.329 247.07 387.819 244.039 390.454 251.222C390.454 251.222 385.778 253.455 382.958 248.206L383.329 247.07Z" fill="#00308F"/>
<path d="M384.663 241.596C384.663 241.596 389.135 236.672 392.703 241.651C392.703 241.651 388.135 245.704 384.457 242.693L384.663 241.596Z" fill="#00308F"/>
<path d="M386.119 234.52C386.119 234.52 390.642 229.63 394.203 234.745C394.203 234.745 389.126 238.762 385.956 235.547L386.119 234.52Z" fill="#00308F"/>
<path d="M387.456 228.396C387.456 228.396 390.899 222.529 394.952 223.838C394.952 223.838 391.38 230.051 387.495 229.774L387.456 228.396Z" fill="#00308F"/>
<path d="M388.293 222.336C388.293 222.336 391.715 214.564 394.952 215.917C394.952 215.917 392.484 221.892 388.206 223.647L388.293 222.336Z" fill="#00308F"/>
<path d="M388.564 214.913C388.564 214.913 392.249 208.957 395.702 209.685C395.702 209.685 392.689 215.725 388.206 216.636L388.564 214.913Z" fill="#00308F"/>
<path d="M388.955 208.36C388.955 208.36 391.85 200.91 394.203 200.859C394.203 200.859 392.813 208.255 389.15 209.624L388.955 208.36Z" fill="#00308F"/>
<path d="M388.955 201.978C388.955 201.978 392.379 194.74 394.952 194.725C394.952 194.725 393.201 200.913 389.069 202.613L388.955 201.978Z" fill="#00308F"/>
<path d="M389.705 194.791C389.705 194.791 392.165 188.433 394.202 187.713C394.202 187.713 392.973 195.462 389.976 196.477L389.705 194.791Z" fill="#00308F"/>
<path d="M391.219 188.511L396.452 178.948C396.452 178.948 395.111 188.381 390.454 190.342L391.219 188.511Z" fill="#00308F"/>
<path d="M394.533 178.373C394.533 178.373 400.724 173.586 400.949 172.813C400.949 172.813 397.801 179.517 391.954 180.701L394.533 178.373Z" fill="#00308F"/>
<path d="M395.122 176.319C395.122 176.319 402.153 168.423 403.948 168.431C403.948 168.431 398.149 168.74 394.952 175.898L395.122 176.319Z" fill="#00308F"/>
<path d="M389.705 195.562L389.975 195.6C391.37 183.658 393.404 176.59 395.702 175.725L395.613 175.442C393.176 176.367 391.128 183.326 389.705 195.562Z" fill="#444053"/>
<path d="M388.206 224.487L388.59 224.524C388.671 223.397 388.733 222.244 388.775 221.094C389.141 211.103 389.709 201.927 390.454 195.049L390.234 194.725C389.486 201.618 388.758 211.069 388.391 221.076C388.349 222.218 388.287 223.366 388.206 224.487Z" fill="#444053"/>
<path d="M358.427 277.988C358.493 277.955 365.238 274.479 372.239 266.19C376.34 261.336 379.747 255.762 382.335 249.676C385.572 242.071 387.545 232.726 388.206 223.648L387.807 223.863C386.321 244.241 378.281 258.164 371.888 265.748C364.956 273.963 358.286 277.403 358.22 277.436L358.427 277.988Z" fill="#444053"/>
<path d="M135.152 272.792C137.547 272.792 139.489 270.521 139.489 267.72C139.489 264.92 137.547 262.649 135.152 262.649C132.756 262.649 130.814 264.92 130.814 267.72C130.814 270.521 132.756 272.792 135.152 272.792Z" fill="#FF6584"/>
<path d="M158.995 287.812H157.846V338.852H158.995V287.812Z" fill="#3F3D56"/>
<path d="M158.421 294.527C161.91 294.527 164.739 291.22 164.739 287.14C164.739 283.061 161.91 279.753 158.421 279.753C154.932 279.753 152.103 283.061 152.103 287.14C152.103 291.22 154.932 294.527 158.421 294.527Z" fill="#001338"/>
<path d="M157.846 318.705C157.846 318.705 156.991 296.147 139.466 298.769L157.846 318.705Z" fill="#001338"/>
<path d="M178.53 302.165C178.53 302.165 175.472 324.145 157.744 319.151L178.53 302.165Z" fill="#001338"/>
<path d="M311.577 9.22265C310.799 9.22265 310.038 8.95219 309.39 8.44555C308.743 7.93883 308.238 7.21865 307.94 6.37602C307.642 5.5334 307.564 4.60623 307.716 3.71171C307.868 2.8172 308.243 1.99554 308.793 1.35063C309.344 0.705725 310.045 0.266536 310.809 0.0886068C311.573 -0.0893226 312.365 0.00200016 313.084 0.351021C313.803 0.70004 314.418 1.29109 314.851 2.04942C315.283 2.80775 315.514 3.6993 315.514 4.61134C315.513 5.83392 315.098 7.00601 314.36 7.87056C313.621 8.73504 312.621 9.2213 311.577 9.22265ZM311.577 0.768561C310.928 0.768561 310.294 0.993935 309.754 1.41618C309.215 1.83843 308.795 2.43859 308.546 3.14077C308.298 3.84295 308.233 4.6156 308.36 5.36102C308.486 6.10645 308.798 6.79118 309.258 7.32861C309.716 7.86604 310.301 8.23201 310.937 8.3803C311.574 8.52853 312.233 8.45245 312.833 8.1616C313.432 7.87075 313.944 7.37824 314.305 6.74627C314.666 6.11434 314.858 5.37137 314.858 4.61134C314.857 3.59253 314.511 2.61578 313.896 1.89537C313.281 1.17496 312.447 0.769722 311.577 0.768561Z" fill="#3F3D56"/>
<path d="M394.767 71.263C402.454 71.263 408.685 63.9778 408.685 54.9912C408.685 46.0047 402.454 38.7197 394.767 38.7197C387.081 38.7197 380.85 46.0047 380.85 54.9912C380.85 63.9778 387.081 71.263 394.767 71.263Z" fill="#004DE6"/>
<path d="M158.015 229.638H95.4885V214.894H158.015V229.638ZM96.3005 228.686H157.203V215.846H96.3005V228.686Z" fill="#3F3D56"/>
<path d="M150.301 227.022C152.543 227.022 154.361 224.893 154.361 222.266C154.361 219.64 152.543 217.51 150.301 217.51C148.059 217.51 146.241 219.64 146.241 222.266C146.241 224.893 148.059 227.022 150.301 227.022Z" fill="#004DE6"/>
<path d="M138.933 227.022C141.175 227.022 142.993 224.893 142.993 222.266C142.993 219.64 141.175 217.51 138.933 217.51C136.69 217.51 134.872 219.64 134.872 222.266C134.872 224.893 136.69 227.022 138.933 227.022Z" fill="#004DE6"/>
<path d="M127.564 227.022C129.806 227.022 131.624 224.893 131.624 222.266C131.624 219.64 129.806 217.51 127.564 217.51C125.321 217.51 123.504 219.64 123.504 222.266C123.504 224.893 125.321 227.022 127.564 227.022Z" fill="#004DE6"/>
<path d="M116.195 227.022C118.438 227.022 120.255 224.893 120.255 222.266C120.255 219.64 118.438 217.51 116.195 217.51C113.953 217.51 112.135 219.64 112.135 222.266C112.135 224.893 113.953 227.022 116.195 227.022Z" fill="#004DE6"/>
<path d="M104.827 227.022C107.069 227.022 108.887 224.893 108.887 222.266C108.887 219.64 107.069 217.51 104.827 217.51C102.584 217.51 100.767 219.64 100.767 222.266C100.767 224.893 102.584 227.022 104.827 227.022Z" fill="#004DE6"/>
<path d="M275.426 59.3702H169.451V258.131H275.426V59.3702Z" fill="#FFE48F"/>
<path d="M246.725 263.294L169.451 258.15V59.3516L246.725 54.2076V263.294Z" fill="#446FC8"/>
<path d="M240.246 175.83C240.775 175.83 241.203 175.329 241.203 174.712C241.203 174.094 240.775 173.593 240.246 173.593C239.718 173.593 239.29 174.094 239.29 174.712C239.29 175.329 239.718 175.83 240.246 175.83Z" fill="#535461"/>
<path d="M240.246 174.88L240.909 176.221L241.574 177.563H240.246H238.919L239.584 176.221L240.246 174.88Z" fill="#535461"/>
<path d="M250.036 263.294L245.069 263.276L245.265 54.2076H250.036V263.294Z" fill="#00308F"/>
<g opacity="0.1">
<path opacity="0.1" d="M250.105 263.545H245.322L245.561 54.2076H250.105V263.545Z" fill="#00308F"/>
</g>
<path opacity="0.1" d="M240.246 169.359C241.964 169.359 243.356 167.731 243.356 165.724C243.356 163.717 241.964 162.089 240.246 162.089C238.529 162.089 237.137 163.717 237.137 165.724C237.137 167.731 238.529 169.359 240.246 169.359Z" fill="black"/>
<path d="M240.246 168.155C241.964 168.155 243.356 166.527 243.356 164.519C243.356 162.512 241.964 160.885 240.246 160.885C238.529 160.885 237.137 162.512 237.137 164.519C237.137 166.527 238.529 168.155 240.246 168.155Z" fill="#535461"/>
<path d="M252.196 125.576V127.578L259.433 122.238L258.672 121.12L258.318 121.362L252.719 111.772V106.208L250.588 106.432V105.543C244.968 97.977 244.387 106.432 245.549 108.881C246.711 111.331 248.837 113.12 248.837 113.12C250.033 114.286 252.095 123.093 252.6 125.302L252.196 125.576Z" fill="url(#paint0_linear)"/>
<path d="M299.15 121.128L298.162 120.345H298.119L297.222 117.23L296.897 117.244L295.783 114.641C296.743 114.086 297.613 113.34 298.354 112.435C300.095 110.427 301.683 106.983 301.291 101.158C301.21 99.9537 302.91 96.8329 297.821 95.2111C297.669 93.5236 297.073 91.9322 296.113 90.6577C295.155 89.3832 293.881 88.4887 292.468 88.0983C290.501 87.5272 288.469 87.3194 286.447 87.4833C282.542 87.8718 279.117 91.2269 279.117 95.81C279.117 95.81 277.938 96.2346 277.873 100.756H278.024C277.316 104.096 277.772 107.628 279.291 110.576C280.81 113.523 283.268 115.645 286.125 116.475L286.192 116.945C286.261 116.99 286.333 117.029 286.404 117.068L287.122 119.254L284.804 120.882L280.155 121.06C278.011 121.147 275.898 121.676 273.913 122.623C269.655 124.623 261.904 126.541 261.904 126.541L259.433 122.411L252.2 128.238L256.96 136.735C257.72 137.408 258.553 137.963 259.435 138.385H259.457H259.483L259.699 138.486C260.875 139.019 262.093 139.417 263.336 139.677C266.206 140.351 270.511 140.851 275.9 139.903L275.862 139.889L275.996 139.87L277.612 178.175H277.718L276.946 184.735C269.327 195.882 267.232 228.157 267.232 228.157L278.505 266.046C278.292 267.128 277.436 269.465 273.994 271.104C269.38 273.299 277.266 274.89 277.266 274.89L284.441 272.315C285.034 273.713 288.366 275.555 288.366 275.555L302.642 275.111V266.874H302.451C302.451 266.874 303.783 251.965 302.831 248.85C301.879 245.736 302.831 230.604 302.831 230.604L303.592 198.337C306.256 192.108 306.256 186.767 304.163 181.648C303.533 180.093 303.129 178.426 302.968 176.716C303.542 175.136 303.783 172.542 303.207 168.297C301.494 155.676 307.014 143.038 307.014 143.038C307.663 138.887 307.265 134.606 305.869 130.716C304.473 126.825 302.138 123.494 299.15 121.128ZM290.636 268.792L289.028 262.051L288.662 262.171L281.698 227.933L288.17 212.136V227.268L291.786 256.864V266.874C291.557 267.622 291.16 268.284 290.636 268.792Z" fill="url(#paint1_linear)"/>
<path d="M253.633 109.164V114.518L259.079 123.846L253.633 127.987C253.633 127.987 251.213 117.082 249.909 115.799C249.909 115.799 247.859 114.088 246.742 111.736C245.625 109.384 246.183 101.26 251.586 108.529V109.385L253.633 109.164Z" fill="#FDA57D"/>
<path d="M296.983 121.911L294.83 116.878C294.767 116.73 294.671 116.604 294.553 116.514C294.434 116.424 294.297 116.372 294.156 116.364L285.981 115.866C285.848 115.858 285.715 115.889 285.595 115.956C285.475 116.023 285.37 116.124 285.293 116.251C285.214 116.377 285.164 116.524 285.147 116.679C285.13 116.833 285.146 116.99 285.194 117.136L287.306 123.519C287.369 123.708 287.482 123.868 287.629 123.974C287.776 124.081 287.949 124.13 288.122 124.112L296.354 123.256C296.482 123.24 296.605 123.187 296.712 123.104C296.819 123.02 296.907 122.907 296.969 122.776C297.031 122.643 297.064 122.496 297.067 122.345C297.069 122.195 297.04 122.046 296.983 121.911Z" fill="#FDA57D"/>
<path d="M296.388 119.747L297.777 124.514L283.494 123.915L288.98 120.065L296.388 119.747Z" fill="#EDEEF9"/>
<path d="M260.083 124.556L259.351 123.488L253.133 127.763V129.689L260.083 124.556Z" fill="#EDEEF9"/>
<path d="M302.099 171.857C302.099 171.857 301.054 176.725 303.056 181.643C305.058 186.561 305.068 191.692 302.508 197.678L301.784 228.681C301.784 228.681 300.87 243.22 301.784 246.212C302.697 249.203 301.418 263.53 301.418 263.53H291.176V253.912L287.701 225.476V210.937L281.483 226.117L288.612 261.181L279.285 265.672L267.579 226.332C267.579 226.332 269.591 195.329 276.907 184.64L278.28 172.986L302.099 171.857Z" fill="#7A7478"/>
<path d="M301.602 271.443V263.533H291.176C291.176 263.533 290.444 266.74 285.69 267.38C280.934 268.021 287.895 271.871 287.895 271.871L301.602 271.443Z" fill="#333333"/>
<path d="M290.341 266.518L288.526 258.896L278.481 262.165C278.481 262.165 278.512 265.484 274.077 267.592C269.643 269.7 277.222 271.227 277.222 271.227L290.341 266.518Z" fill="#333333"/>
<path opacity="0.1" d="M278.282 173.627L302.099 172.509C301.805 174.168 301.744 175.873 301.92 177.555C300.829 180.553 298.493 179.731 298.493 179.731L277.653 178.981L278.282 173.627Z" fill="black"/>
<path d="M297.304 122.738L298.26 123.491C301.133 125.765 303.377 128.968 304.719 132.708C306.061 136.448 306.441 140.564 305.816 144.553C305.816 144.553 300.511 156.685 302.159 168.817C303.807 180.949 298.502 179.081 298.502 179.081L277.56 178.329L276.005 141.519C276.005 141.519 263.387 143.619 257.716 138.486L253.143 130.322L260.093 124.729L262.47 128.694C262.47 128.694 269.918 126.854 274.008 124.917C275.914 124.005 277.944 123.495 280.002 123.409L297.304 122.738Z" fill="#00308F"/>
<path opacity="0.1" d="M297.119 181.965C297.119 181.965 298.399 189.447 291.085 201.85L297.119 181.965Z" fill="black"/>
<path opacity="0.1" d="M275.905 141.555C275.905 141.555 267.127 138.136 263.286 138.136C259.444 138.136 260.086 140.076 260.086 140.076C260.086 140.076 266.211 143.264 275.905 141.555Z" fill="black"/>
<path opacity="0.1" d="M285.859 116.293L289.353 116.783C289.463 116.8 289.564 116.962 289.624 117.214C288.856 118.833 287.895 119.8 286.852 119.8C286.479 119.794 286.114 119.676 285.792 119.456L285.525 117.566C285.433 116.934 285.613 116.26 285.859 116.293Z" fill="black"/>
<path d="M288.297 119.37C294.188 119.37 298.964 113.786 298.964 106.899C298.964 100.012 294.188 94.429 288.297 94.429C282.405 94.429 277.629 100.012 277.629 106.899C277.629 113.786 282.405 119.37 288.297 119.37Z" fill="#FDA57D"/>
<path opacity="0.1" d="M279.225 99.8388L279.763 100.415C279.992 100.66 280.164 100.967 280.264 101.311C280.364 101.654 280.388 102.021 280.334 102.378C280.28 102.735 280.151 103.071 279.957 103.354C279.763 103.637 279.511 103.858 279.225 103.997C279.225 103.997 284.008 109.588 284.668 110.62C285.328 111.652 284.558 114.386 284.558 114.386C284.558 114.386 282.446 118.933 293.558 117.893C293.558 117.893 300.892 116.075 300.114 104.514C300.035 103.356 301.669 100.356 296.78 98.7985C296.635 97.1768 296.062 95.6474 295.141 94.4226C294.22 93.1977 292.995 92.3382 291.638 91.9626C289.748 91.4134 287.797 91.2133 285.855 91.3695C284.043 91.5547 282.357 92.5272 281.129 94.0954C279.902 95.6635 279.222 97.7131 279.225 99.8388Z" fill="black"/>
<path d="M278.993 99.1567C278.993 99.1567 277.861 99.5652 277.797 103.91L279.406 103.781C279.406 103.781 283.133 115.433 282.74 113.914C281.305 108.322 284.176 109.368 284.852 110.408C285.529 111.448 284.742 114.174 284.742 114.174C284.742 114.174 282.633 118.712 293.743 117.68C293.743 117.68 301.075 115.863 300.298 104.301C300.219 103.144 301.853 100.144 296.964 98.5862C296.819 96.9645 296.246 95.4351 295.325 94.2102C294.404 92.9854 293.18 92.1258 291.822 91.7502C289.932 91.2011 287.981 91.001 286.038 91.1572C282.283 91.5321 278.993 94.753 278.993 99.1567Z" fill="#72351C"/>
<path opacity="0.1" d="M182.146 59.3702V259.422" stroke="black" stroke-width="2" stroke-miterlimit="10"/>
<path opacity="0.1" d="M195.945 58.0796V260.067" stroke="black" stroke-width="2" stroke-miterlimit="10"/>
<path opacity="0.1" d="M209.192 56.7889V261.358" stroke="black" stroke-width="2" stroke-miterlimit="10"/>
<path opacity="0.1" d="M222.99 56.1436V262.649" stroke="black" stroke-width="2" stroke-miterlimit="10"/>
<path opacity="0.1" d="M236.79 54.853V262.649" stroke="black" stroke-width="2" stroke-miterlimit="10"/>
<path opacity="0.1" d="M36.1599 302.965C60.1582 302.965 79.6125 300.659 79.6125 297.813C79.6125 294.969 60.1582 292.662 36.1599 292.662C12.1618 292.662 -7.29248 294.969 -7.29248 297.813C-7.29248 300.659 12.1618 302.965 36.1599 302.965Z" fill="#00308F"/>
<path d="M51.3383 212.958C51.3383 212.958 -5.33221 247.189 23.9906 287.564C23.9906 287.564 26.7406 296.446 34.717 295.7C34.717 295.7 33.1217 292.307 39.2749 289.607C41.4199 288.62 43.4593 287.344 45.3522 285.806C47.927 283.724 49.8522 280.719 50.8369 277.244C50.8369 277.244 62.4292 259.108 53.4501 225.553C53.4501 225.553 54.6048 216.067 53.5869 214.54L46.6284 225.393C46.6284 225.393 53.754 230.97 54.5593 239.177C54.5593 239.177 47.145 225.411 45.5345 226.974C45.2155 227.294 42.1161 233.013 42.1161 233.013C42.1161 233.013 54.4529 242.801 55.3796 255.502C55.3796 255.502 48.4212 237.738 40.9158 235.163L36.6769 244.133C36.6769 244.133 50.1684 253.725 51.6877 268.149C51.6877 268.149 43.8632 249.853 35.8716 246.158L32.7115 255.626C32.7115 255.626 45.7016 265.289 46.9019 277.297C46.9019 277.297 36.0387 257.225 32.1189 257.758C32.1189 257.758 29.6728 266.64 29.9919 269.392C29.9919 269.392 39.1837 276.498 39.3509 283.603C39.3509 283.603 30.8731 271.08 29.5665 271.915C29.5665 271.915 29.0196 284.491 31.6327 291.046C31.6327 291.046 27.166 281.703 27.88 271.915C25.2399 274.656 23.3483 278.246 22.4409 282.235C22.4409 282.235 19.9948 275.308 28.0472 268.949C28.0472 268.949 28.8068 259.161 29.7336 257.953C29.7336 257.953 21.0279 262.909 17.336 269.019C17.336 269.019 18.6882 259.925 30.4933 255.413L33.5319 245.821C33.5319 245.821 21.742 251.665 18.1108 256.816C18.1108 256.816 20.724 247.792 34.4587 243.476L38.5304 234.594C38.5304 234.594 28.0472 238.715 22.9423 243.476C22.9423 243.476 26.9077 235.731 39.7915 232.161L43.1036 226.636C43.1036 226.636 35.507 229.816 33.38 230.953C31.2529 232.09 30.8276 231.521 30.8276 231.521C34.7232 227.674 39.4578 225.171 44.5014 224.292C44.5014 224.292 51.8701 213.473 51.3383 212.958Z" fill="#00308F"/>
<path opacity="0.1" d="M58.7469 306.065C70.1586 306.065 79.4094 304.97 79.4094 303.619C79.4094 302.267 70.1586 301.172 58.7469 301.172C47.3358 301.172 38.085 302.267 38.085 303.619C38.085 304.97 47.3358 306.065 58.7469 306.065Z" fill="#00308F"/>
<path d="M66.0052 263.294C66.0052 263.294 39.0653 279.561 52.9783 298.737C53.3706 299.928 54.0751 300.944 54.9911 301.639C55.9071 302.333 56.9873 302.672 58.078 302.605C58.078 302.605 57.324 300.996 60.2173 299.707C61.2407 299.234 62.2143 298.628 63.1206 297.899C64.3454 296.906 65.2617 295.475 65.7319 293.821C65.7319 293.821 71.2366 285.204 66.9667 269.256C66.9667 269.256 67.523 264.738 67.0329 264.01L63.762 269.267C63.762 269.267 67.1461 271.923 67.5324 275.813C67.5324 275.813 64.0071 269.278 63.2432 270.016C63.0925 270.171 61.6221 272.893 61.6221 272.893C61.6221 272.893 67.485 277.544 67.9282 283.583C67.9282 283.583 64.6198 275.119 61.0469 273.918L59.0395 278.172C59.0395 278.172 65.44 282.735 66.1658 289.589C66.1658 289.589 62.4423 280.894 58.6244 279.142L57.1258 283.639C57.1258 283.639 63.3094 288.234 63.8752 293.943C63.8752 293.943 58.7094 284.399 56.8432 284.696C56.8432 284.696 55.6836 288.928 55.8343 290.207C55.8343 290.207 60.208 293.623 60.2836 296.974C60.2836 296.974 56.2493 291.023 55.6273 291.463C55.6273 291.463 55.3728 297.436 56.6169 300.555C55.3535 297.759 54.7359 294.624 54.8258 291.463C53.5803 292.757 52.6831 294.445 52.2431 296.323C52.2431 296.323 51.0836 293.017 54.9107 290.008C54.9107 290.008 55.2691 285.358 55.7117 284.785C55.7117 284.785 51.5738 287.143 49.8205 290.042C49.8205 290.042 50.4615 285.721 56.0699 283.572L57.4934 279.01C57.4934 279.01 51.8848 281.787 50.1504 284.245C50.1504 284.245 51.3947 279.946 57.9273 277.897L59.8691 273.697C59.8691 273.697 54.8824 275.659 52.4504 277.897C52.4504 277.897 54.3357 274.205 60.463 272.518L62.0366 269.884C62.0366 269.884 58.4268 271.394 57.4178 271.945C56.4094 272.496 56.2019 272.21 56.2019 272.21C58.0504 270.385 60.2952 269.194 62.6874 268.772C62.6874 268.772 66.2127 263.515 66.0052 263.294Z" fill="#00308F"/>
<path d="M-3.31177 170.044C4.15674 170.044 10.2112 162.965 10.2112 154.234C10.2112 145.502 4.15674 138.423 -3.31177 138.423C-10.7803 138.423 -16.8347 145.502 -16.8347 154.234C-16.8347 162.965 -10.7803 170.044 -3.31177 170.044Z" stroke="#504E49"/>
<path d="M54.8839 90.157L47.8586 98.3707L54.8839 106.584L61.9092 98.3707L54.8839 90.157Z" stroke="#5D5A55"/>
<path d="M285.998 349.579L276.369 360.837L285.998 372.096L295.627 360.837L285.998 349.579Z" stroke="#5D5A55"/>
<path d="M344.145 71.9542H329.242V89.378H344.145V71.9542Z" stroke="#5D5A55"/>
</g>
<defs>
<linearGradient id="paint0_linear" x1="252.239" y1="127.578" x2="252.239" y2="102.47" gradientUnits="userSpaceOnUse">
<stop stop-color="#808080" stop-opacity="0.25"/>
<stop offset="0.54" stop-color="#808080" stop-opacity="0.12"/>
<stop offset="1" stop-color="#808080" stop-opacity="0.1"/>
</linearGradient>
<linearGradient id="paint1_linear" x1="42856.6" y1="153775" x2="42856.6" y2="27188.9" gradientUnits="userSpaceOnUse">
<stop stop-color="#808080" stop-opacity="0.25"/>
<stop offset="0.54" stop-color="#808080" stop-opacity="0.12"/>
<stop offset="1" stop-color="#808080" stop-opacity="0.1"/>
</linearGradient>
<clipPath id="clip0">
<rect width="409" height="373" fill="white"/>
</clipPath>
</defs>
</svg>
